HIERARCHY
ROOT hip
{
  OFFSET 0 0 0
  CHANNELS 6 Xposition Yposition Zposition Zrotation Yrotation Xrotation
  JOINT abdomen
  {
    OFFSET 0 20.6881 -0.73152
    CHANNELS 3 Zrotation Xrotation Yrotation
    JOINT chest
    {
      OFFSET 0 11.7043 -0.48768
      CHANNELS 3 Zrotation Xrotation Yrotation
      JOINT neck
      {
        OFFSET 0 22.1894 -2.19456
        CHANNELS 3 Zrotation Xrotation Yrotation
        JOINT head
        {
          OFFSET -0.24384 7.07133 1.2192
          CHANNELS 3 Zrotation Xrotation Yrotation
          JOINT leftEye
          {
            OFFSET 4.14528 8.04674 8.04672
            CHANNELS 3 Zrotation Xrotation Yrotation
            End Site
            {
              OFFSET 1 0 0
            }
          }
          JOINT rightEye
          {
            OFFSET -3.6576 8.04674 8.04672
            CHANNELS 3 Zrotation Xrotation Yrotation
            End Site
            {
              OFFSET 1 0 0
            }
          }
        }
      }
      JOINT rCollar
      {
        OFFSET -2.68224 19.2634 -4.8768
        CHANNELS 3 Zrotation Xrotation Yrotation
        JOINT rShldr
        {
          OFFSET -8.77824 -1.95073 1.46304
          CHANNELS 3 Zrotation Xrotation Yrotation
          JOINT rForeArm
          {
            OFFSET -28.1742 -1.7115 0.48768
            CHANNELS 3 Zrotation Xrotation Yrotation
            JOINT rHand
            {
              OFFSET -22.5879 0.773209 7.07136
              CHANNELS 3 Zrotation Xrotation Yrotation
              JOINT rThumb1
              {
                OFFSET -1.2192 -0.487915 3.41376
                CHANNELS 3 Zrotation Xrotation Yrotation
                JOINT rThumb2
                {
                  OFFSET -3.37035 -0.52449 3.41376
                  CHANNELS 3 Zrotation Xrotation Yrotation
                  End Site
                  {
                    OFFSET -1.78271 -1.18214 1.43049
                  }
                }
              }
              JOINT rIndex1
              {
                OFFSET -7.75947 0.938293 5.60832
                CHANNELS 3 Zrotation Xrotation Yrotation
                JOINT rIndex2
                {
                  OFFSET -2.54057 -0.884171 1.56538
                  CHANNELS 3 Zrotation Xrotation Yrotation
                  End Site
                  {
                    OFFSET -1.62519 -0.234802 1.16502
                  }
                }
              }
              JOINT rMid1
              {
                OFFSET -8.24714 1.18213 3.41376
                CHANNELS 3 Zrotation Xrotation Yrotation
                JOINT rMid2
                {
                  OFFSET -3.10165 -0.590103 1.0647
                  CHANNELS 3 Zrotation Xrotation Yrotation
                  End Site
                  {
                    OFFSET -2.48547 -0.328903 0.83742
                  }
                }
              }
              JOINT rRing1
              {
                OFFSET -8.82822 0.546677 1.51678
                CHANNELS 3 Zrotation Xrotation Yrotation
                JOINT rRing2
                {
                  OFFSET -2.60934 -0.819778 -0.0198488
                  CHANNELS 3 Zrotation Xrotation Yrotation
                  End Site
                  {
                    OFFSET -2.33842 -0.294052 0.168128
                  }
                }
              }
              JOINT rPinky1
              {
                OFFSET -8.27202 -0.0477905 -0.4584
                CHANNELS 3 Zrotation Xrotation Yrotation
                JOINT rPinky2
                {
                  OFFSET -1.82734 -0.647385 -0.700984
                  CHANNELS 3 Zrotation Xrotation Yrotation
                  End Site
                  {
                    OFFSET -1.69225 -0.51767 -0.607171
                  }
                }
              }
            }
          }
        }
      }
      JOINT lCollar
      {
        OFFSET 2.68224 19.2634 -4.8768
        CHANNELS 3 Zrotation Xrotation Yrotation
        JOINT lShldr
        {
          OFFSET 8.77824 -1.95073 1.46304
          CHANNELS 3 Zrotation Xrotation Yrotation
          JOINT lForeArm
          {
            OFFSET 28.1742 -1.7115 0.48768
            CHANNELS 3 Zrotation Xrotation Yrotation
            JOINT lHand
            {
              OFFSET 22.5879 0.773209 7.07136
              CHANNELS 3 Zrotation Xrotation Yrotation
              JOINT lThumb1
              {
                OFFSET 1.2192 -0.487915 3.41376
                CHANNELS 3 Zrotation Xrotation Yrotation
                JOINT lThumb2
                {
                  OFFSET 3.37035 -0.52449 3.41376
                  CHANNELS 3 Zrotation Xrotation Yrotation
                  End Site
                  {
                    OFFSET 1.78271 -1.18214 1.43049
                  }
                }
              }
              JOINT lIndex1
              {
                OFFSET 7.75947 0.938293 5.60832
                CHANNELS 3 Zrotation Xrotation Yrotation
                JOINT lIndex2
                {
                  OFFSET 2.54057 -0.884171 1.56538
                  CHANNELS 3 Zrotation Xrotation Yrotation
                  End Site
                  {
                    OFFSET 1.62519 -0.234802 1.16502
                  }
                }
              }
              JOINT lMid1
              {
                OFFSET 8.24714 1.18213 3.41376
                CHANNELS 3 Zrotation Xrotation Yrotation
                JOINT lMid2
                {
                  OFFSET 3.10165 -0.590103 1.0647
                  CHANNELS 3 Zrotation Xrotation Yrotation
                  End Site
                  {
                    OFFSET 2.48547 -0.328903 0.83742
                  }
                }
              }
              JOINT lRing1
              {
                OFFSET 8.82822 0.546677 1.51678
                CHANNELS 3 Zrotation Xrotation Yrotation
                JOINT lRing2
                {
                  OFFSET 2.60934 -0.819778 -0.0198488
                  CHANNELS 3 Zrotation Xrotation Yrotation
                  End Site
                  {
                    OFFSET 2.33842 -0.294052 0.168128
                  }
                }
              }
              JOINT lPinky1
              {
                OFFSET 8.27202 -0.0477905 -0.4584
                CHANNELS 3 Zrotation Xrotation Yrotation
                JOINT lPinky2
                {
                  OFFSET 1.82734 -0.647385 -0.700984
                  CHANNELS 3 Zrotation Xrotation Yrotation
                  End Site
                  {
                    OFFSET 1.69225 -0.51767 -0.607171
                  }
                }
              }
            }
          }
        }
      }
    }
  }
  JOINT rButtock
  {
    OFFSET -8.77824 4.35084 1.2192
    CHANNELS 3 Zrotation Xrotation Yrotation
    JOINT rThigh
    {
      OFFSET 0 -1.70687 -2.19456
      CHANNELS 3 Zrotation Xrotation Yrotation
      JOINT rShin
      {
        OFFSET 0 -36.8199 0.73152
        CHANNELS 3 Zrotation Xrotation Yrotation
        JOINT rFoot
        {
          OFFSET 0.73152 -45.1104 -5.12064
          CHANNELS 3 Zrotation Xrotation Yrotation
          End Site
          {
            OFFSET -1.1221 -3.69964 12.103
          }
        }
      }
    }
  }
  JOINT lButtock
  {
    OFFSET 8.77824 4.35084 1.2192
    CHANNELS 3 Zrotation Xrotation Yrotation
    JOINT lThigh
    {
      OFFSET 0 -1.70687 -2.19456
      CHANNELS 3 Zrotation Xrotation Yrotation
      JOINT lShin
      {
        OFFSET 0 -36.8199 0.73152
        CHANNELS 3 Zrotation Xrotation Yrotation
        JOINT lFoot
        {
          OFFSET -0.73152 -45.1104 -5.12064
          CHANNELS 3 Zrotation Xrotation Yrotation
          End Site
          {
            OFFSET 1.1221 -3.69964 12.103
          }
        }
      }
    }
  }
}
MOTION
Frames:	8
Frame Time:	0.00833333
41.8324 85.1932 175.265 0.0 0.0 0.0 0.572865 -0.00324251 0.0163892 0.158165 -0.00505499 0.027405 -2.54153e-15 -2.38542e-15 9.31803e-17 -7.76192e-15 -6.36111e-15 2.34504e-16 -0.0 0.0 0.0 -0.0 0.0 0.0 -1.39283e-15 5.82377e-18 1.98785e-16 -2.46891e-14 2.23633e-16 1.59028e-15 -4.67492e-13 1.48691e-13 2.22639e-14 -5.3986e-12 -1.0553e-13 1.62208e-13 -1.27262e-11 9.47956e-14 3.81667e-13 -2.19804e-11 1.62208e-13 6.6235e-13 -1.27194e-11 9.85972e-14 3.75305e-13 7.73091 5.47488 0.417314 -1.27259e-11 9.49197e-14 3.88028e-13 2.90554 0.965183 0.102902 -1.27144e-11 9.59136e-14 3.85642e-13 10.2786 0.731801 0.0259123 -1.2727e-11 9.42239e-14 3.94389e-13 2.22167 -0.733487 -0.20892 -1.39024e-15 4.65902e-18 -1.49089e-16 -3.01965e-14 -6.83322e-17 0.0 -4.74598e-13 -1.3577e-13 2.54444e-14 -5.39726e-12 1.66408e-13 1.68569e-13 -1.27367e-11 7.09582e-14 3.97569e-13 -2.19896e-11 1.20861e-13 6.83819e-13 -1.27417e-11 7.43455e-14 4.0393e-13 -7.73091 5.47488 -0.417314 -1.27392e-11 7.17613e-14 3.91208e-13 -2.90554 0.965183 -0.102902 -1.27464e-11 7.15625e-14 3.91208e-13 -10.2786 0.731801 -0.0259123 -1.27349e-11 7.07673e-14 3.88028e-13 -2.22167 -0.733487 0.20892 -2.03217e-16 0.0 -3.88251e-19 0.920377 -4.54483 -0.077618 -0.00189458 2.68071 -0.00762958 -0.48982 1.8645 0.0936435 2.03217e-16 0.0 3.88251e-19 -0.0477893 -2.33549 0.0218165 0.00803199 -1.32111 0.0687515 0.481346 3.65688 -0.128868
41.5808 82.3045 163.385 -175.711 -12.5194 -165.545 1.77329 -5.10137 3.47072 -1.05312 1.32984 0.935229 -7.04917 4.69246 0.207373 16.2284 -2.74941 0.220841 -0.0 0.0 0.0 -0.0 0.0 0.0 4.88135e-14 -1.91658e-13 -1.1205e-13 13.4316 26.9847 -3.6416 1.73357 15.4384 -41.6246 0.878096 -21.0603 -2.28552 -2.72011e-10 -2.65092e-11 4.10594e-10 -4.91958e-10 -3.67774e-11 6.82275e-10 -2.72003e-10 -2.65082e-11 4.10588e-10 7.73091 5.47488 0.417314 -2.7201e-10 -2.651e-11 4.10598e-10 2.90554 0.965183 0.102902 -2.72e-10 -2.65093e-11 4.10597e-10 10.2786 0.731801 0.0259123 -2.72012e-10 -2.651e-11 4.10606e-10 2.22167 -0.733487 -0.20892 4.88341e-14 -1.91661e-13 -1.1236e-13 -11.8663 29.6259 4.56048 -1.69148 15.4801 41.5828 -2.06951 -32.9099 2.25062 3.42994e-10 5.89104e-10 -6.53274e-11 5.75294e-10 9.83525e-10 -8.47311e-11 3.42992e-10 5.89122e-10 -6.53163e-11 -7.73091 5.47488 -0.417314 3.42992e-10 5.89104e-10 -6.53303e-11 -2.90554 0.965183 -0.102902 3.42987e-10 5.89103e-10 -6.53296e-11 -10.2786 0.731801 -0.0259123 3.42998e-10 5.89104e-10 -6.53325e-11 -2.22167 -0.733487 0.20892 -2.03217e-16 0.0 -3.88251e-19 2.29783 -10.4843 -3.40493 0.00431435 9.50997 0.0946893 -0.0164658 -4.02856 3.41502 2.03217e-16 0.0 3.88251e-19 1.61379 -10.111 2.50653 -0.0022504 7.74438 -0.0701564 0.272064 -2.18314 -1.49903
41.6001 82.3062 163.377 -175.649 -12.4454 -165.574 3.71884 -10.4275 7.21299 -2.37908 2.74026 1.89641 -14.5381 9.65321 0.431583 33.4056 -5.65615 0.457083 -0.0 0.0 0.0 -0.0 0.0 0.0 1.09113e-13 -4.10579e-13 -2.41343e-13 33.8648 55.0445 -11.7052 17.6152 5.37925 -83.9359 -0.634596 -43.1959 -6.02344 -5.70585e-10 -5.98897e-11 8.9729e-10 -1.03399e-09 -8.38396e-11 1.49152e-09 -5.70577e-10 -5.98917e-11 8.97284e-10 7.73091 5.47488 0.417314 -5.70585e-10 -5.98914e-11 8.97291e-10 2.90554 0.965183 0.102902 -5.70576e-10 -5.9891e-11 8.97292e-10 10.2786 0.731801 0.0259123 -5.70587e-10 -5.98906e-11 8.97301e-10 2.22167 -0.733487 -0.20892 1.09154e-13 -4.10583e-13 -2.41613e-13 -34.1767 60.074 16.5147 -17.5745 5.45475 83.8681 2.62979 -67.4214 10.1683 7.77945e-10 1.30185e-09 -1.36765e-10 1.30441e-09 2.17094e-09 -1.73795e-10 7.77946e-10 1.30188e-09 -1.36749e-10 -7.73091 5.47488 -0.417314 7.77943e-10 1.30185e-09 -1.36764e-10 -2.90554 0.965183 -0.102902 7.7794e-10 1.30185e-09 -1.36763e-10 -10.2786 0.731801 -0.0259123 7.7795e-10 1.30185e-09 -1.36765e-10 -2.22167 -0.733487 0.20892 -2.03217e-16 0.0 -3.88251e-19 2.97342 -16.6758 -7.10727 -0.0167116 16.7283 0.209016 1.23513 -10.1978 7.01865 2.03217e-16 0.0 3.88251e-19 4.13809 -18.2752 5.32181 0.0363689 17.328 -0.225882 -0.256259 -8.34681 -2.98012
41.61 82.3085 163.366 -175.622 -12.3629 -165.612 6.06272 -15.0708 10.7106 -3.6028 3.99556 2.75683 -21.2521 14.0766 0.63923 48.7492 -8.24774 0.668678 -0.0 0.0 0.0 -0.0 0.0 0.0 1.49226e-13 -5.74986e-13 -3.36548e-13 82.5094 76.836 -47.9369 22.6168 -25.4137 -105.38 -7.35573 -62.528 -13.9793 -7.90579e-10 -7.97173e-11 1.23102e-09 -1.43191e-09 -1.10657e-10 2.0455e-09 -7.90571e-10 -7.97218e-11 1.23101e-09 7.73091 5.47488 0.417314 -7.90579e-10 -7.97199e-11 1.23102e-09 2.90554 0.965183 0.102902 -7.90572e-10 -7.97197e-11 1.23102e-09 10.2786 0.731801 0.0259123 -7.90581e-10 -7.97184e-11 1.23103e-09 2.22167 -0.733487 -0.20892 1.49283e-13 -5.74991e-13 -3.3678e-13 -114.523 78.0776 85.7908 -22.6137 -25.3226 105.236 137.556 -79.553 146.998 1.05446e-09 1.76717e-09 -1.96777e-10 1.76986e-09 2.95033e-09 -2.55561e-10 1.05446e-09 1.76722e-09 -1.96757e-10 -7.73091 5.47488 -0.417314 1.05445e-09 1.76717e-09 -1.96773e-10 -2.90554 0.965183 -0.102902 1.05445e-09 1.76717e-09 -1.96771e-10 -10.2786 0.731801 -0.0259123 1.05446e-09 1.76717e-09 -1.96774e-10 -2.22167 -0.733487 0.20892 -2.03217e-16 0.0 -3.88251e-19 2.84867 -22.0668 -10.6798 -0.0620391 23.1682 0.32132 3.03248 -15.5877 10.4198 2.03217e-16 0.0 3.88251e-19 7.1438 -25.4635 8.15603 0.119825 25.8749 -0.38457 -1.00339 -13.8268 -4.36329
41.6151 82.3055 163.376 -175.619 -12.3444 -165.571 8.05486 -18.2224 13.2816 -4.48106 4.86695 3.35966 -25.9537 17.1575 0.789135 59.463 -10.0519 0.812727 -0.0 0.0 0.0 -0.0 0.0 0.0 1.38874e-13 -6.0311e-13 -3.46531e-13 170.236 75.2309 -126.239 20.9946 -52.5384 -111.739 -24.4016 -74.9463 -31.5033 -8.14123e-10 -6.56626e-11 1.18233e-09 -1.46959e-09 -8.68609e-11 1.96131e-09 -8.14115e-10 -6.56685e-11 1.18233e-09 7.73091 5.47488 0.417314 -8.14123e-10 -6.56661e-11 1.18233e-09 2.90554 0.965183 0.102902 -8.14117e-10 -6.56662e-11 1.18233e-09 10.2786 0.731801 0.0259123 -8.14126e-10 -6.56641e-11 1.18234e-09 2.22167 -0.733487 -0.20892 1.38937e-13 -6.03115e-13 -3.4673e-13 -178.538 66.5571 141.01 -21.1167 -52.4341 111.429 156.385 -58.8649 166.547 9.34867e-10 1.61394e-09 -2.28227e-10 1.57617e-09 2.70969e-09 -3.19081e-10 9.34872e-10 1.61399e-09 -2.28205e-10 -7.73091 5.47488 -0.417314 9.34866e-10 1.61394e-09 -2.28221e-10 -2.90554 0.965183 -0.102902 9.34865e-10 1.61394e-09 -2.28218e-10 -10.2786 0.731801 -0.0259123 9.34874e-10 1.61394e-09 -2.28221e-10 -2.22167 -0.733487 0.20892 -2.03217e-16 0.0 -3.88251e-19 2.32183 -25.7275 -13.3776 -0.110735 27.6625 0.408465 4.69251 -19.2484 12.9552 2.03217e-16 0.0 3.88251e-19 9.73659 -30.3965 10.4131 0.211488 31.8303 -0.514446 -1.68318 -17.6336 -5.37156
41.6226 82.3044 163.379 -175.606 -12.3013 -165.556 8.92421 -19.4421 14.3348 -4.83662 5.20671 3.59851 -27.7963 18.3536 0.846682 63.6681 -10.7498 0.859191 -0.0 0.0 0.0 -0.0 0.0 0.0 3.96401e-14 -4.02729e-13 -2.24615e-13 -171.716 69.8274 -140.404 20.0599 -63.7302 -112.347 -41.2267 -78.8087 -48.4301 -4.91121e-10 -3.76968e-12 5.21851e-10 -8.75565e-10 6.56238e-12 8.58223e-10 -4.91112e-10 -3.77559e-12 5.21844e-10 7.73091 5.47488 0.417314 -4.9112e-10 -3.77464e-12 5.21848e-10 2.90554 0.965183 0.102902 -4.91114e-10 -3.77529e-12 5.21851e-10 10.2786 0.731801 0.0259123 -4.91124e-10 -3.77259e-12 5.2186e-10 2.22167 -0.733487 -0.20892 3.96936e-14 -4.02733e-13 -2.24779e-13 170.87 59.7889 147.884 -20.3255 -63.6177 111.877 158.051 -50.5035 168.326 1.49405e-10 4.11411e-10 -2.00702e-10 2.73265e-10 7.36464e-10 -3.33651e-10 1.49408e-10 4.11456e-10 -2.00682e-10 -7.73091 5.47488 -0.417314 1.49404e-10 4.11409e-10 -2.00694e-10 -2.90554 0.965183 -0.102902 1.49402e-10 4.11408e-10 -2.00692e-10 -10.2786 0.731801 -0.0259123 1.49411e-10 4.11411e-10 -2.00694e-10 -2.22167 -0.733487 0.20892 -2.03217e-16 0.0 -3.88251e-19 2.0175 -27.1574 -14.4808 -0.134307 29.4326 0.445185 5.4457 -20.651 14.0102 2.03217e-16 0.0 3.88251e-19 10.889 -32.3141 11.3844 0.256671 34.1585 -0.571775 -1.97456 -19.1248 -5.75
41.6426 82.3025 163.384 -175.599 -12.2629 -165.53 8.83773 -19.3288 14.2388 -4.80946 5.16737 3.57621 -27.5883 18.2039 0.834686 63.2197 -10.6578 0.834726 -0.0 0.0 0.0 -0.0 0.0 0.0 -1.22213e-13 -4.09267e-14 -9.08506e-15 -173.31 70.4812 -139.236 20.1489 -62.4755 -112.345 -38.9093 -78.4598 -46.1055 7.60103e-11 9.22741e-11 -5.7199e-10 1.63601e-10 1.49778e-10 -9.66684e-10 7.6019e-11 9.22693e-11 -5.71997e-10 7.73091 5.47488 0.417314 7.60114e-11 9.22675e-11 -5.71991e-10 2.90554 0.965183 0.102902 7.60178e-11 9.22661e-11 -5.71989e-10 10.2786 0.731801 0.0259123 7.6005e-11 9.22693e-11 -5.71979e-10 2.22167 -0.733487 -0.20892 -1.22179e-13 -4.09295e-14 -9.21243e-15 171.91 60.5746 147.27 -20.3886 -62.3654 111.904 157.909 -51.4228 168.178 -1.10638e-09 -1.53189e-09 -1.31956e-10 -1.81305e-09 -2.45983e-09 -3.1437e-10 -1.10638e-09 -1.53186e-09 -1.31941e-10 -7.73091 5.47488 -0.417314 -1.10638e-09 -1.53189e-09 -1.31948e-10 -2.90554 0.965183 -0.102902 -1.10638e-09 -1.53189e-09 -1.31945e-10 -10.2786 0.731801 -0.0259123 -1.10638e-09 -1.53189e-09 -1.31948e-10 -2.22167 -0.733487 0.20892 -2.03217e-16 0.0 -3.88251e-19 2.07077 -27.0522 -14.3362 -0.131954 29.257 0.441071 5.37383 -20.4906 13.9267 2.03217e-16 0.0 3.88251e-19 10.7778 -32.1234 11.2855 0.252011 33.896 -0.56611 -1.9167 -18.97 -5.64621
41.6629 82.2984 163.391 -175.593 -12.224 -165.496 8.3682 -18.6815 13.6808 -4.62783 4.97134 3.44853 -26.5704 17.5248 0.794273 60.9203 -10.2566 0.780104 -0.0 0.0 0.0 -0.0 0.0 0.0 -2.79945e-13 3.25114e-13 2.23747e-13 177.313 73.5669 -132.01 20.6654 -56.2414 -112.074 -29.0739 -76.4026 -36.2192 6.26366e-10 2.01334e-10 -1.71691e-09 1.17709e-09 3.1488e-10 -2.87956e-09 6.26375e-10 2.0133e-10 -1.71692e-09 7.73091 5.47488 0.417314 6.26368e-10 2.01326e-10 -1.71691e-09 2.90554 0.965183 0.102902 6.26374e-10 2.01324e-10 -1.71691e-09 10.2786 0.731801 0.0259123 6.26359e-10 2.01327e-10 -1.7169e-09 2.22167 -0.733487 -0.20892 -2.79934e-13 3.25113e-13 2.23645e-13 177.595 64.3819 143.667 -20.8171 -56.1381 111.734 157.056 -56.0533 167.269 -2.37216e-09 -3.47817e-09 -7.7101e-11 -3.91449e-09 -5.65808e-09 -3.19001e-10 -2.37216e-09 -3.47816e-09 -7.70912e-11 -7.73091 5.47488 -0.417314 -2.37216e-09 -3.47818e-09 -7.70936e-11 -2.90554 0.965183 -0.102902 -2.37216e-09 -3.47817e-09 -7.70906e-11 -10.2786 0.731801 -0.0259123 -2.37216e-09 -3.47817e-09 -7.70952e-11 -2.22167 -0.733487 0.20892 -2.03217e-16 0.0 -3.88251e-19 2.26829 -26.3346 -13.6898 -0.119247 28.3039 0.420636 4.97095 -19.7064 13.3865 2.03217e-16 0.0 3.88251e-19 10.1614 -31.0901 10.7594 0.227492 32.5966 -0.535172 -1.7214 -18.1567 -5.35018
